<svg xmlns="http://www.w3.org/2000/svg" xmlns:xlink="http://www.w3.org/1999/xlink" width="800" zoomAndPan="magnify" viewBox="0 0 600 599.999999" height="800" preserveAspectRatio="xMidYMid meet" version="1.0"><path fill="#db4a2b" d="M 600.027344 300.011719 C 600.027344 376.765625 571.226562 446.765625 523.796875 499.820312 C 468.871094 561.320312 388.972656 600.023438 300.019531 600.023438 C 211.066406 600.023438 131.136719 561.320312 76.234375 499.820312 C 28.808594 446.765625 0.0078125 376.765625 0.0078125 300.011719 C 0.0078125 134.332031 134.3125 0.00390625 300.019531 0.00390625 C 465.699219 0.00390625 600.027344 134.332031 600.027344 300.011719 " fill-opacity="1" fill-rule="nonzero"/><path fill="#f2f2f2" d="M 300.019531 355.277344 C 354.390625 355.277344 403.917969 293.757812 403.917969 226.207031 C 403.917969 162.386719 391.574219 99.277344 300.019531 99.277344 C 208.453125 99.277344 196.101562 162.386719 196.101562 226.207031 C 196.101562 293.757812 245.632812 355.277344 300.019531 355.277344 " fill-opacity="1" fill-rule="nonzero"/><path fill="#f2f2f2" d="M 523.796875 499.820312 C 468.871094 561.320312 388.972656 600.023438 300.019531 600.023438 C 211.066406 600.023438 131.136719 561.320312 76.234375 499.820312 C 75.285156 462.765625 99.960938 376.914062 225.816406 350.492188 C 247.34375 372.464844 273.839844 384.890625 300.019531 384.890625 C 326.191406 384.890625 352.671875 372.464844 374.195312 350.492188 C 500.074219 376.914062 524.726562 462.765625 523.796875 499.820312 " fill-opacity="1" fill-rule="nonzero"/></svg>