<svg width="107" height="72" viewBox="0 0 107 72" fill="none" xmlns="http://www.w3.org/2000/svg">
<path d="M20.5469 33.3945L15.0391 33.7266C14.8828 33.0365 14.4922 32.444 13.8672 31.9492C13.2552 31.4414 12.4219 31.1875 11.3672 31.1875C10.4297 31.1875 9.64193 31.3828 9.00391 31.7734C8.36589 32.1641 8.04688 32.6849 8.04688 33.3359C8.04688 33.8568 8.25521 34.2995 8.67188 34.6641C9.08854 35.0286 9.79818 35.3216 10.8008 35.543L14.7656 36.3242C18.9583 37.1576 21.0547 39.1237 21.0547 42.2227C21.0547 43.668 20.638 44.931 19.8047 46.0117C18.9714 47.0924 17.8255 47.9323 16.3672 48.5312C14.9089 49.1302 13.2357 49.4297 11.3477 49.4297C8.45703 49.4297 6.15885 48.8307 4.45312 47.6328C2.7474 46.4219 1.74479 44.7747 1.44531 42.6914L7.38281 42.3789C7.78646 44.1758 9.11458 45.0742 11.3672 45.0742C12.4219 45.0742 13.2747 44.8659 13.9258 44.4492C14.5768 44.0326 14.9023 43.5052 14.9023 42.8672C14.9023 41.7865 13.9714 41.0573 12.1094 40.6797L8.33984 39.8984C4.13411 39.0521 2.03125 36.9818 2.03125 33.6875C2.03125 31.5781 2.87109 29.918 4.55078 28.707C6.24349 27.4961 8.48307 26.8906 11.2695 26.8906C14.0299 26.8906 16.2044 27.4766 17.793 28.6484C19.3815 29.8073 20.2995 31.3893 20.5469 33.3945ZM29.1797 49L23.2422 27.1641H29.3555L32.7539 41.8516H32.9297L36.4844 27.1641H42.4609L46.0547 41.7539H46.25L49.5703 27.1641H55.6836L49.7461 49H43.3398L39.5898 35.2695H39.3359L35.5859 49H29.1797ZM58.9062 49V27.1641H64.9609V49H58.9062ZM61.9336 24.3711C61.0352 24.3711 60.2604 24.0716 59.6094 23.4727C58.9714 22.8737 58.6523 22.151 58.6523 21.3047C58.6523 20.4583 58.9714 19.7422 59.6094 19.1562C60.2604 18.5573 61.0352 18.2578 61.9336 18.2578C62.832 18.2578 63.6003 18.5573 64.2383 19.1562C64.8893 19.7422 65.2148 20.4583 65.2148 21.3047C65.2148 22.151 64.8893 22.8737 64.2383 23.4727C63.6003 24.0716 62.832 24.3711 61.9336 24.3711ZM69.8047 57.1641V27.1641H75.7617V30.8555H76.0352C76.3086 30.2565 76.6927 29.651 77.1875 29.0391C77.6953 28.4271 78.3594 27.9193 79.1797 27.5156C80.013 27.099 81.0352 26.8906 82.2461 26.8906C83.8477 26.8906 85.3125 27.3073 86.6406 28.1406C87.9818 28.9609 89.056 30.2044 89.8633 31.8711C90.6706 33.5378 91.0742 35.6211 91.0742 38.1211C91.0742 40.543 90.6836 42.5938 89.9023 44.2734C89.1211 45.9401 88.0599 47.2031 86.7188 48.0625C85.3776 48.9219 83.8737 49.3516 82.207 49.3516C81.0352 49.3516 80.0391 49.1562 79.2188 48.7656C78.4115 48.375 77.7474 47.8867 77.2266 47.3008C76.7188 46.7018 76.3216 46.1029 76.0352 45.5039H75.8594V57.1641H69.8047ZM75.7227 38.1016C75.7227 40.0286 76.1198 41.5846 76.9141 42.7695C77.7214 43.9544 78.8542 44.5469 80.3125 44.5469C81.7969 44.5469 82.9297 43.9479 83.7109 42.75C84.4922 41.5391 84.8828 39.9896 84.8828 38.1016C84.8828 36.2005 84.4922 34.6576 83.7109 33.4727C82.9427 32.2878 81.8099 31.6953 80.3125 31.6953C78.8542 31.6953 77.7214 32.2747 76.9141 33.4336C76.1198 34.5924 75.7227 36.1484 75.7227 38.1016ZM99.375 49.3711C98.4115 49.3711 97.5977 49.0456 96.9336 48.3945C96.2695 47.7305 95.9375 46.9232 95.9375 45.9727C95.9375 45.0091 96.2695 44.2018 96.9336 43.5508C97.5977 42.8997 98.4115 42.5742 99.375 42.5742C100.339 42.5742 101.152 42.8997 101.816 43.5508C102.48 44.2018 102.812 45.0091 102.812 45.9727C102.812 46.9232 102.48 47.7305 101.816 48.3945C101.152 49.0456 100.339 49.3711 99.375 49.3711Z" fill="#DB4A2B"/>
</svg>
