<svg width="107" height="50" viewBox="0 0 107 50" fill="none" xmlns="http://www.w3.org/2000/svg">
<path d="M20.5469 21.3945L15.0391 21.7266C14.8828 21.0365 14.4922 20.444 13.8672 19.9492C13.2552 19.4414 12.4219 19.1875 11.3672 19.1875C10.4297 19.1875 9.64193 19.3828 9.00391 19.7734C8.36589 20.1641 8.04688 20.6849 8.04688 21.3359C8.04688 21.8568 8.25521 22.2995 8.67188 22.6641C9.08854 23.0286 9.79818 23.3216 10.8008 23.543L14.7656 24.3242C18.9583 25.1576 21.0547 27.1237 21.0547 30.2227C21.0547 31.668 20.638 32.931 19.8047 34.0117C18.9714 35.0924 17.8255 35.9323 16.3672 36.5312C14.9089 37.1302 13.2357 37.4297 11.3477 37.4297C8.45703 37.4297 6.15885 36.8307 4.45312 35.6328C2.7474 34.4219 1.74479 32.7747 1.44531 30.6914L7.38281 30.3789C7.78646 32.1758 9.11458 33.0742 11.3672 33.0742C12.4219 33.0742 13.2747 32.8659 13.9258 32.4492C14.5768 32.0326 14.9023 31.5052 14.9023 30.8672C14.9023 29.7865 13.9714 29.0573 12.1094 28.6797L8.33984 27.8984C4.13411 27.0521 2.03125 24.9818 2.03125 21.6875C2.03125 19.5781 2.87109 17.918 4.55078 16.707C6.24349 15.4961 8.48307 14.8906 11.2695 14.8906C14.0299 14.8906 16.2044 15.4766 17.793 16.6484C19.3815 17.8073 20.2995 19.3893 20.5469 21.3945ZM29.1797 37L23.2422 15.1641H29.3555L32.7539 29.8516H32.9297L36.4844 15.1641H42.4609L46.0547 29.7539H46.25L49.5703 15.1641H55.6836L49.7461 37H43.3398L39.5898 23.2695H39.3359L35.5859 37H29.1797ZM58.9062 37V15.1641H64.9609V37H58.9062ZM61.9336 12.3711C61.0352 12.3711 60.2604 12.0716 59.6094 11.4727C58.9714 10.8737 58.6523 10.151 58.6523 9.30469C58.6523 8.45833 58.9714 7.74219 59.6094 7.15625C60.2604 6.55729 61.0352 6.25781 61.9336 6.25781C62.832 6.25781 63.6003 6.55729 64.2383 7.15625C64.8893 7.74219 65.2148 8.45833 65.2148 9.30469C65.2148 10.151 64.8893 10.8737 64.2383 11.4727C63.6003 12.0716 62.832 12.3711 61.9336 12.3711ZM69.8047 45.1641V15.1641H75.7617V18.8555H76.0352C76.3086 18.2565 76.6927 17.651 77.1875 17.0391C77.6953 16.4271 78.3594 15.9193 79.1797 15.5156C80.013 15.099 81.0352 14.8906 82.2461 14.8906C83.8477 14.8906 85.3125 15.3073 86.6406 16.1406C87.9818 16.9609 89.056 18.2044 89.8633 19.8711C90.6706 21.5378 91.0742 23.6211 91.0742 26.1211C91.0742 28.543 90.6836 30.5938 89.9023 32.2734C89.1211 33.9401 88.0599 35.2031 86.7188 36.0625C85.3776 36.9219 83.8737 37.3516 82.207 37.3516C81.0352 37.3516 80.0391 37.1562 79.2188 36.7656C78.4115 36.375 77.7474 35.8867 77.2266 35.3008C76.7188 34.7018 76.3216 34.1029 76.0352 33.5039H75.8594V45.1641H69.8047ZM75.7227 26.1016C75.7227 28.0286 76.1198 29.5846 76.9141 30.7695C77.7214 31.9544 78.8542 32.5469 80.3125 32.5469C81.7969 32.5469 82.9297 31.9479 83.7109 30.75C84.4922 29.5391 84.8828 27.9896 84.8828 26.1016C84.8828 24.2005 84.4922 22.6576 83.7109 21.4727C82.9427 20.2878 81.8099 19.6953 80.3125 19.6953C78.8542 19.6953 77.7214 20.2747 76.9141 21.4336C76.1198 22.5924 75.7227 24.1484 75.7227 26.1016ZM99.375 37.3711C98.4115 37.3711 97.5977 37.0456 96.9336 36.3945C96.2695 35.7305 95.9375 34.9232 95.9375 33.9727C95.9375 33.0091 96.2695 32.2018 96.9336 31.5508C97.5977 30.8997 98.4115 30.5742 99.375 30.5742C100.339 30.5742 101.152 30.8997 101.816 31.5508C102.48 32.2018 102.812 33.0091 102.812 33.9727C102.812 34.9232 102.48 35.7305 101.816 36.3945C101.152 37.0456 100.339 37.3711 99.375 37.3711Z" fill="white"/>
</svg>
