<svg width="393" height="120" viewBox="0 0 393 120" fill="none" xmlns="http://www.w3.org/2000/svg">
<g clip-path="url(#clip0_18_1053)">
<mask id="mask0_18_1053" style="mask-type:luminance" maskUnits="userSpaceOnUse" x="0" y="18" width="393" height="102">
<path d="M0 18.4531H393V120H0V18.4531Z" fill="white"/>
</mask>
<g mask="url(#mask0_18_1053)">
<path d="M0.00537109 18.4531L13.1054 28.2667C26.2054 38.0792 52.4043 57.7052 78.6032 59.1135C104.802 60.5646 131.002 43.7542 157.201 42.0042C183.4 40.2125 209.6 53.4385 235.799 56.5104C261.998 59.5406 288.198 52.4573 314.397 53.3542C340.596 54.2927 366.795 63.2521 379.895 67.7323L392.995 72.2115V119.997H379.895C366.795 119.997 340.596 119.997 314.397 119.997C288.198 119.997 261.998 119.997 235.799 119.997C209.6 119.997 183.4 119.997 157.201 119.997C131.002 119.997 104.802 119.997 78.6032 119.997C52.4043 119.997 26.2054 119.997 13.1054 119.997H0.00537109V18.4531Z" fill="#DB4A2B"/>
</g>
<mask id="mask1_18_1053" style="mask-type:luminance" maskUnits="userSpaceOnUse" x="0" y="18" width="393" height="102">
<path d="M0 18.4531H393V120H0V18.4531Z" fill="white"/>
</mask>
<g mask="url(#mask1_18_1053)">
<path d="M0.00537109 18.4531L13.1054 28.2667C26.2054 38.0792 52.4043 57.7052 78.6032 59.1135C104.802 60.5646 131.002 43.7542 157.201 42.0042C183.4 40.2125 209.6 53.4385 235.799 56.5104C261.998 59.5406 288.198 52.4573 314.397 53.3542C340.596 54.2927 366.795 63.2521 379.895 67.7323L392.995 72.2115V119.997H379.895C366.795 119.997 340.596 119.997 314.397 119.997C288.198 119.997 261.998 119.997 235.799 119.997C209.6 119.997 183.4 119.997 157.201 119.997C131.002 119.997 104.802 119.997 78.6032 119.997C52.4043 119.997 26.2054 119.997 13.1054 119.997H0.00537109V18.4531Z" fill="#DB4A2B"/>
</g>
</g>
<defs>
<clipPath id="clip0_18_1053">
<rect width="393" height="120" fill="white"/>
</clipPath>
</defs>
</svg>
