<svg xmlns="http://www.w3.org/2000/svg" xmlns:xlink="http://www.w3.org/1999/xlink" width="500" zoomAndPan="magnify" viewBox="0 0 375 202.499994" height="270" preserveAspectRatio="xMidYMid meet" version="1.0"><defs><clipPath id="0ab073161a"><path d="M 0.460938 0 L 374.539062 0 L 374.539062 199 L 0.460938 199 Z M 0.460938 0 " clip-rule="nonzero"/></clipPath><clipPath id="750e666b4f"><path d="M 108.589844 31.8125 L 169.191406 31.8125 L 169.191406 92.414062 L 108.589844 92.414062 Z M 108.589844 31.8125 " clip-rule="nonzero"/></clipPath></defs><g clip-path="url(#0ab073161a)"><path fill="#db4a2b" d="M 16.535156 198.285156 C 12.433594 198.1875 6.011719 197.75 1.570312 197.265625 L 0.40625 197.136719 L 0.40625 0 L 189.285156 0 C 371.722656 0 378.164062 0.0078125 378.164062 0.207031 C 378.164062 0.789062 372.957031 11.503906 370.8125 15.332031 C 364.570312 26.484375 358.210938 34.140625 350.199219 40.152344 C 342.050781 46.265625 331.867188 51.40625 321.988281 54.402344 C 316.765625 55.988281 310.773438 57.164062 304.109375 57.917969 C 300.339844 58.34375 297.351562 58.582031 285.425781 59.402344 C 272.863281 60.269531 264.757812 62.042969 256.351562 65.757812 C 250.925781 68.15625 244.355469 72.703125 237.726562 78.644531 C 231.375 84.339844 225.746094 90.21875 217.226562 100.0625 C 208.976562 109.589844 206.359375 112.464844 202.917969 115.792969 C 196.324219 122.160156 189.210938 127.207031 182.695312 130.136719 C 177.46875 132.488281 171.210938 134.164062 164.410156 135.035156 C 158 135.855469 152.636719 136.144531 138.800781 136.410156 C 130.265625 136.574219 125.761719 136.917969 120.117188 137.835938 C 109.707031 139.53125 101.574219 143.445312 91.71875 151.511719 C 85.886719 156.285156 81.441406 160.664062 73.097656 169.855469 C 65.78125 177.914062 62.0625 181.5625 57 185.636719 C 48.054688 192.832031 39.175781 196.769531 29.335938 197.898438 C 26.027344 198.28125 21.691406 198.410156 16.535156 198.285156 Z M 16.535156 198.285156 " fill-opacity="1" fill-rule="nonzero"/></g><g clip-path="url(#750e666b4f)"><path fill="#db4a2b" d="M 108.589844 31.8125 L 169.191406 31.8125 L 169.191406 92.414062 L 108.589844 92.414062 Z M 108.589844 31.8125 " fill-opacity="1" fill-rule="nonzero"/></g></svg>