<svg width="36" height="37" viewBox="0 0 36 37" fill="none" xmlns="http://www.w3.org/2000/svg">
<path d="M12 5C7.8585 5 4.5 8.3585 4.5 12.5V24.5C4.5 28.6415 7.8585 32 12 32H24C28.1415 32 31.5 28.6415 31.5 24.5V12.5C31.5 8.3585 28.1415 5 24 5H12ZM27 8C27.828 8 28.5 8.672 28.5 9.5C28.5 10.328 27.828 11 27 11C26.172 11 25.5 10.328 25.5 9.5C25.5 8.672 26.172 8 27 8ZM18 11C22.1415 11 25.5 14.3585 25.5 18.5C25.5 22.6415 22.1415 26 18 26C13.8585 26 10.5 22.6415 10.5 18.5C10.5 14.3585 13.8585 11 18 11ZM18 14C16.8065 14 15.6619 14.4741 14.818 15.318C13.9741 16.1619 13.5 17.3065 13.5 18.5C13.5 19.6935 13.9741 20.8381 14.818 21.682C15.6619 22.5259 16.8065 23 18 23C19.1935 23 20.3381 22.5259 21.182 21.682C22.0259 20.8381 22.5 19.6935 22.5 18.5C22.5 17.3065 22.0259 16.1619 21.182 15.318C20.3381 14.4741 19.1935 14 18 14Z" fill="white"/>
</svg>
