<svg width="36" height="37" viewBox="0 0 36 37" fill="none" xmlns="http://www.w3.org/2000/svg">
<path d="M32.373 9.779C32.028 8.489 31.011 7.472 29.721 7.127C27.381 6.5 18 6.5 18 6.5C18 6.5 8.619 6.5 6.279 7.127C4.989 7.472 3.972 8.489 3.627 9.779C3 12.119 3 18.5 3 18.5C3 18.5 3 24.881 3.627 27.221C3.972 28.511 4.989 29.528 6.279 29.873C8.619 30.5 18 30.5 18 30.5C18 30.5 27.381 30.5 29.721 29.873C31.0125 29.528 32.028 28.511 32.373 27.221C33 24.881 33 18.5 33 18.5C33 18.5 33 12.119 32.373 9.779ZM15 22.397V14.603C15 14.0255 15.6255 13.6655 16.125 13.9535L22.875 17.8505C23.3745 18.1385 23.3745 18.8615 22.875 19.1495L16.125 23.0465C15.6255 23.336 15 22.9745 15 22.397Z" fill="white"/>
</svg>
